<?xml version="1.0" encoding="UTF-8" standalone="no"?>
<svg
   xmlns:dc="http://purl.org/dc/elements/1.1/"
   xmlns:cc="http://creativecommons.org/ns#"
   xmlns:rdf="http://www.w3.org/1999/02/22-rdf-syntax-ns#"
   xmlns:svg="http://www.w3.org/2000/svg"
   xmlns="http://www.w3.org/2000/svg"
   xmlns:xlink="http://www.w3.org/1999/xlink"
   xmlns:sodipodi="http://sodipodi.sourceforge.net/DTD/sodipodi-0.dtd"
   xmlns:inkscape="http://www.inkscape.org/namespaces/inkscape"
   inkscape:version="1.0.1 (3bc2e813f5, 2020-09-07)"
   sodipodi:docname="harbour-hafenschau-new.svg"
   id="svg19"
   xml:space="preserve"
   enable-background="new 0 0 86 86"
   viewBox="0 0 86 86"
   height="86px"
   width="86px"
   y="0px"
   x="0px"
   version="1.1"><metadata
   id="metadata25"><rdf:RDF><cc:Work
       rdf:about=""><dc:format>image/svg+xml</dc:format><dc:type
         rdf:resource="http://purl.org/dc/dcmitype/StillImage" /><dc:title /></cc:Work></rdf:RDF></metadata><defs
   id="defs23"><linearGradient
   inkscape:collect="always"
   id="linearGradient1006"><stop
     style="stop-color:#ffffff;stop-opacity:1;"
     offset="0"
     id="stop1002" /><stop
     style="stop-color:#ffffff;stop-opacity:0;"
     offset="1"
     id="stop1004" /></linearGradient>
	<linearGradient
   id="SVGID_1_"
   gradientUnits="userSpaceOnUse"
   x1="88.028671"
   y1="87.960068"
   x2="6.7618999"
   y2="18.8514"
   gradientTransform="matrix(1,0,0,-1,0,86)">
		<stop
   offset="0"
   style="stop-color:#64b5f6;stop-opacity:1"
   id="stop3" />
		<stop
   offset="0.9951"
   style="stop-color:#1565c0;stop-opacity:1"
   id="stop5" />
	</linearGradient>
	
	
	
	
<radialGradient
   inkscape:collect="always"
   xlink:href="#linearGradient1006"
   id="radialGradient1008"
   cx="42.798515"
   cy="32"
   fx="42.798515"
   fy="32"
   r="24"
   gradientUnits="userSpaceOnUse"
   gradientTransform="matrix(1.7528897,0.02306376,-0.02767567,2.1034034,-31.336941,-36.296003)" /></defs><sodipodi:namedview
   inkscape:current-layer="svg19"
   inkscape:window-maximized="1"
   inkscape:window-y="0"
   inkscape:window-x="0"
   inkscape:cy="149.62249"
   inkscape:cx="41.780522"
   inkscape:zoom="2.0784883"
   showgrid="false"
   id="namedview21"
   inkscape:window-height="1015"
   inkscape:window-width="1920"
   inkscape:pageshadow="2"
   inkscape:pageopacity="0"
   guidetolerance="10"
   gridtolerance="10"
   objecttolerance="10"
   borderopacity="1"
   bordercolor="#666666"
   pagecolor="#ffffff"
   inkscape:document-rotation="0" />
<g
   display="none"
   id="Layer_2">
</g>
<path
   style="fill:url(#SVGID_1_)"
   fill="url(#SVGID_1_)"
   d="M 43,85.7 C 19.417,85.7 0.3,66.582 0.3,43 0.3,42.592 0.3,1.723 0.3,1.723 0.3,0.937 0.937,0.3 1.723,0.3 h 82.553 c 0.786,0 1.423,0.637 1.423,1.423 0,0 0,40.908 0,41.277 C 85.7,66.582 66.583,85.7 43,85.7 Z"
   id="path8" />
<path
   id="rect891"
   style="fill:#ffffff;stroke:none;stroke-width:12;stroke-linecap:round;stroke-linejoin:round;stroke-miterlimit:4;stroke-dasharray:none;fill-opacity:0.93333334"
   d="M 13,12 43,26 73,12 c 1.004051,-0.468557 2,0.892 2,2 v 44.000004 c 0,1.108 -0.892,2 -2,2 l -30,14 -30,-14 c -1.004051,-0.468557 -2,-0.892 -2,-2 V 14 c 0,-1.108 0.892,-2 2,-2 z"
   sodipodi:nodetypes="scsssscssss" /><path
   style="fill:#cccccc;stroke:#e6e6e6;stroke-width:4;stroke-linecap:round;stroke-linejoin:miter;stroke-miterlimit:4;stroke-dasharray:none;stroke-opacity:1"
   d="m 17,54 20,8.705882"
   id="path913" /><path
   id="path996"
   style="fill:url(#radialGradient1008);stroke:none;stroke-width:4;stroke-linecap:round;stroke-linejoin:round;stroke-miterlimit:4;stroke-dasharray:none"
   d="m 66.798515,32 a 24,24 0 0 1 -24,24 24,24 0 0 1 -24,-24 24,24 0 0 1 24,-24 24,24 0 0 1 24,24 z" /><g
   id="g922"><path
     style="fill:#cccccc;stroke:#e6e6e6;stroke-width:4;stroke-linecap:round;stroke-linejoin:miter;stroke-miterlimit:4;stroke-dasharray:none;stroke-opacity:1"
     d="m 17,22 20,8.705882"
     id="path905" /><path
     style="fill:#cccccc;stroke:#e6e6e6;stroke-width:4;stroke-linecap:round;stroke-linejoin:miter;stroke-miterlimit:4;stroke-dasharray:none;stroke-opacity:1"
     d="m 17,30 20,8.705882"
     id="path907" /><path
     style="fill:#cccccc;stroke:#e6e6e6;stroke-width:4;stroke-linecap:round;stroke-linejoin:miter;stroke-miterlimit:4;stroke-dasharray:none;stroke-opacity:1"
     d="m 17,38 20,8.705882"
     id="path909" /><path
     style="fill:#cccccc;stroke:#e6e6e6;stroke-width:4;stroke-linecap:round;stroke-linejoin:miter;stroke-miterlimit:4;stroke-dasharray:none;stroke-opacity:1"
     d="m 17,46 20,8.705882"
     id="path911" /><path
     style="fill:#cccccc;stroke:#e6e6e6;stroke-width:4;stroke-linecap:round;stroke-linejoin:miter;stroke-miterlimit:4;stroke-dasharray:none;stroke-opacity:1"
     d="m 17,54 20,8.705882"
     id="path915" /></g><path
   style="fill:#cccccc;stroke:#e6e6e6;stroke-width:4;stroke-linecap:round;stroke-linejoin:miter;stroke-miterlimit:4;stroke-dasharray:none;stroke-opacity:1"
   d="M 69,38 49,46.705882"
   id="path928" /><path
   style="fill:#cccccc;stroke:#e6e6e6;stroke-width:4;stroke-linecap:round;stroke-linejoin:miter;stroke-miterlimit:4;stroke-dasharray:none;stroke-opacity:1"
   d="M 69,46 49,54.705882"
   id="path930" /><path
   style="fill:#cccccc;stroke:#e6e6e6;stroke-width:4;stroke-linecap:round;stroke-linejoin:miter;stroke-miterlimit:4;stroke-dasharray:none;stroke-opacity:1"
   d="M 69,54 49,62.705882"
   id="path932" /><path
   id="path964"
   style="fill:#e6e6e6;stroke:none;stroke-width:4;stroke-linecap:round;stroke-linejoin:round;stroke-miterlimit:4;stroke-dasharray:none"
   d="M 42.556641 25.423828 L 42.505859 73.400391 L 43.066406 73.662109 L 43.505859 73.457031 L 43.556641 25.433594 L 43.066406 25.662109 L 42.556641 25.423828 z " /><text
   xml:space="preserve"
   style="font-style:normal;font-variant:normal;font-weight:bold;font-stretch:normal;font-size:8px;line-height:1.25;font-family:'Liberation Sans';-inkscape-font-specification:'Liberation Sans Bold';letter-spacing:0px;word-spacing:0px;fill:#e6e6e6;"
   x="48.014931"
   y="59.070137"
   id="text994"
   transform="skewY(-24)"><tspan
     sodipodi:role="line"
     id="tspan992"
     x="48.014931"
     y="59.070137">NEWS</tspan></text></svg>
