<?xml version="1.0" encoding="UTF-8" standalone="no"?>
<svg
   xmlns:dc="http://purl.org/dc/elements/1.1/"
   xmlns:cc="http://creativecommons.org/ns#"
   xmlns:rdf="http://www.w3.org/1999/02/22-rdf-syntax-ns#"
   xmlns:svg="http://www.w3.org/2000/svg"
   xmlns="http://www.w3.org/2000/svg"
   xmlns:sodipodi="http://sodipodi.sourceforge.net/DTD/sodipodi-0.dtd"
   xmlns:inkscape="http://www.inkscape.org/namespaces/inkscape"
   inkscape:version="1.0.1 (3bc2e813f5, 2020-09-07)"
   sodipodi:docname="harbour-hafenschau.svg"
   id="svg56"
   xml:space="preserve"
   enable-background="new 0 0 86 86"
   viewBox="0 0 86 86"
   height="86px"
   width="86px"
   y="0px"
   x="0px"
   version="1.1"
   inkscape:export-filename="/home/sam/SailfishIcons/android/apkd_launcher_de_tagesschau-de_tagesschau_ui_splashscreen_SplashScreen.png"
   inkscape:export-xdpi="285.76746"
   inkscape:export-ydpi="285.76746"><metadata
   id="metadata62"><rdf:RDF><cc:Work
       rdf:about=""><dc:format>image/svg+xml</dc:format><dc:type
         rdf:resource="http://purl.org/dc/dcmitype/StillImage" /><dc:title /></cc:Work></rdf:RDF></metadata><defs
   id="defs60"><rect
   x="15.500955"
   y="-14.561615"
   width="23.690129"
   height="9.9315892"
   id="rect855" /><rect
   x="21.961676"
   y="-19.177736"
   width="17.236514"
   height="15.025673"
   id="rect845" />
	
		<radialGradient
   id="SVGID_1_"
   cx="481.8537"
   cy="348.9771"
   r="44.7903"
   gradientTransform="matrix(0,0.953,0.9513,0,-289.0715,-416.2066)"
   gradientUnits="userSpaceOnUse">
		<stop
   offset="0"
   style="stop-color:#bbdefb;stop-opacity:1"
   id="stop3" />
		<stop
   offset="1"
   style="stop-color:#0277bd;stop-opacity:1"
   id="stop5" />
	</radialGradient>
	
	
	
	<linearGradient
   id="SVGID_2_"
   gradientUnits="userSpaceOnUse"
   x1="28.1058"
   y1="27.843"
   x2="57.9244"
   y2="57.6616">
		<stop
   offset="0"
   style="stop-color:#FFFFFF"
   id="stop46" />
		<stop
   offset="1"
   style="stop-color:#F3EDD1"
   id="stop48" />
	</linearGradient>
	
	
</defs><sodipodi:namedview
   inkscape:current-layer="svg56"
   inkscape:window-maximized="1"
   inkscape:window-y="0"
   inkscape:window-x="0"
   inkscape:cy="33.285951"
   inkscape:cx="17.849459"
   inkscape:zoom="5.878853"
   showgrid="false"
   id="namedview58"
   inkscape:window-height="1015"
   inkscape:window-width="1920"
   inkscape:pageshadow="2"
   inkscape:pageopacity="0"
   guidetolerance="10"
   gridtolerance="10"
   objecttolerance="10"
   borderopacity="1"
   bordercolor="#666666"
   pagecolor="#ffffff"
   inkscape:document-rotation="0" />
<g
   display="none"
   id="Layer_2">
</g>
<path
   fill="url(#SVGID_1_)"
   d="M 0.3,84.261 V 43 C 0.3,19.426 19.378,0.317 42.911,0.317 h 41.19 c 0.784,0 1.42,0.637 1.42,1.423 V 43 c 0,23.574 -19.078,42.684 -42.611,42.684 H 1.72 c -0.784,0 -1.42,-0.638 -1.42,-1.423 z"
   id="path8"
   style="fill:url(#SVGID_1_)" />
<path
   id="path8-3"
   d="M 43.000001,9.0000065 C 24.222286,9.0000065 9,24.222287 9,42.999999 9,61.777709 24.222286,76.999994 43.000001,76.999994 61.777712,76.999994 77,61.777709 77,42.999999 77,24.222289 61.777712,9.0000065 43.000001,9.0000065 Z m -3.405684,6.4983255 c 0.396387,-0.04129 0.899725,0.0238 1.29966,0 0.0476,0.189623 -0.287831,0.862575 -0.739956,1.849886 -2.878791,6.288999 -3.041768,13.660958 -0.369974,17.597653 0.48348,0.713748 0.9202,1.391605 0.9202,1.479908 0,0.08825 -0.52037,0.180249 -1.10993,0.180249 -1.384002,0 -2.693427,-0.840795 -5.369418,-2.95982 -1.188778,-0.941339 -2.731061,-1.730213 -3.329801,-1.849892 -0.940217,-0.187826 -1.193272,-0.106517 -2.409601,1.109935 -1.131679,1.131476 -1.479914,1.743739 -1.479914,2.779577 0,3.928049 4.660603,7.04206 13.328691,8.879464 11.771586,2.494919 14.673624,4.738642 14.998324,10.92857 0.40766,7.761993 -3.727123,13.616884 -12.778464,18.147875 -1.080329,0.540983 -1.766587,0.745391 -2.21986,0.9202 -0.200845,-0.01797 -0.349956,0.01797 -0.550227,0 -0.07703,-0.239993 -0.18972,-0.794969 -0.18972,-1.849887 0,-4.12263 -1.621162,-8.365801 -4.069746,-10.73884 -0.657284,-0.637078 -2.503261,-1.98424 -4.079246,-2.959821 -1.575921,-0.975524 -3.165208,-2.10636 -3.519531,-2.58984 -0.58718,-0.802332 -0.63138,-1.297387 -0.180253,-2.779578 0.822184,-2.707041 1.797325,-4.218701 3.699784,-5.929129 0.99738,-0.896716 1.998913,-1.642185 2.21986,-1.660156 0.221,-0.01797 -1.266765,-0.470803 -3.510043,-0.929687 -2.24315,-0.459776 -5.532233,-1.425595 -7.228795,-2.03962 -3.10231,-1.122529 -7.282624,-3.474178 -8.879468,-5.179687 -0.06756,-0.07227 -0.131046,-0.125703 -0.18972,-0.18972 2.287894,-9.113534 8.706656,-16.578456 17.218193,-20.17801 1.780931,-0.753269 3.621138,-1.273251 5.559149,-1.669642 0.965334,-0.197296 1.963096,-0.268649 2.959827,-0.369969 z m 27.776788,13.888389 c 0.695905,0.430149 3.319685,6.115963 4.069746,8.888949 0.968416,3.579943 0.898334,9.772376 0,13.328679 -0.341891,1.353549 -0.774424,2.621963 -0.920188,2.779577 -0.145712,0.157615 -0.677886,-0.747979 -1.299672,-1.849885 -0.621859,-1.101731 -2.608798,-3.447469 -4.259498,-5.189177 -4.764686,-5.027701 -5.515374,-7.646498 -3.519531,-11.659036 1.006527,-2.023388 5.39053,-6.631529 5.929143,-6.299107 z"
   style="fill:#ffffff;stroke-width:4.85714;opacity:0.3" /><text
   xml:space="preserve"
   id="text843"
   style="font-style:normal;font-variant:normal;font-weight:normal;font-stretch:normal;font-size:8px;line-height:1.25;font-family:Autobahn;-inkscape-font-specification:Autobahn;letter-spacing:0px;word-spacing:0px;white-space:pre;shape-inside:url(#rect845);" /><g
   aria-label="i"
   transform="matrix(7.3717943,0,0,7.3717943,-82.910247,119.10271)"
   id="text853"
   style="font-style:italic;font-variant:normal;font-weight:bold;font-stretch:normal;font-size:8px;line-height:1.25;font-family:'Noto Serif';-inkscape-font-specification:'Noto Serif Bold Italic';letter-spacing:0px;word-spacing:0px;white-space:pre;shape-inside:url(#rect855);fill:#ffffff;stroke-width:0.135652"><path
     d="m 17.372,-12.291499 q -0.264,0 -0.448,-0.12 -0.176,-0.128 -0.176,-0.376 0,-0.352 0.224,-0.504 0.224,-0.152 0.52,-0.152 0.256,0 0.448,0.12 0.192,0.112 0.192,0.384 0,0.328 -0.24,0.488 -0.232,0.16 -0.52,0.16 z m -0.392,5.0880005 q -0.456,0 -0.704,-0.216 -0.248,-0.224 -0.248,-0.608 0,-0.168 0.032,-0.408 0.032,-0.24 0.096,-0.544 l 0.312,-1.4880005 q 0.024,-0.104 0.04,-0.208 0.016,-0.104 0.016,-0.136 0,-0.216 -0.096,-0.272 -0.096,-0.064 -0.328,-0.064 h -0.144 l 0.08,-0.424 h 1.888 l -0.552,2.6000005 q -0.048,0.216 -0.08,0.408 -0.032,0.192 -0.032,0.36 0,0.36 0.28,0.36 0.128,0 0.232,-0.048 0.104,-0.048 0.24,-0.136 l 0.192,0.272 q -0.192,0.2 -0.488,0.376 -0.296,0.176 -0.736,0.176 z"
     style="font-style:italic;font-variant:normal;font-weight:bold;font-stretch:normal;font-family:'Noto Serif';-inkscape-font-specification:'Noto Serif Bold Italic';fill:#ffffff;stroke-width:0.135652"
     id="path847" /></g></svg>
