<?xml version="1.0" encoding="UTF-8"?>
<svg id="Layer_1" enable-background="new 0 0 410.155 410.155" version="1.1" viewBox="0 0 410.16 410.16" xml:space="preserve" xmlns="http://www.w3.org/2000/svg" xmlns:cc="http://creativecommons.org/ns#" xmlns:dc="http://purl.org/dc/elements/1.1/" xmlns:rdf="http://www.w3.org/1999/02/22-rdf-syntax-ns#"><metadata id="metadata39"><rdf:RDF><cc:Work rdf:about=""><dc:format>image/svg+xml</dc:format><dc:type rdf:resource="http://purl.org/dc/dcmitype/StillImage"/><dc:title/></cc:Work></rdf:RDF></metadata>
<path id="path2" d="m403.63 74.18c-9.113 4.041-18.573 7.229-28.28 9.537 10.696-10.164 18.738-22.877 23.275-37.067 1.295-4.051-3.105-7.554-6.763-5.385-13.504 8.01-28.05 14.019-43.235 17.862-0.881 0.223-1.79 0.336-2.702 0.336-2.766 0-5.455-1.027-7.57-2.891-16.156-14.239-36.935-22.081-58.508-22.081-9.335 0-18.76 1.455-28.014 4.325-28.672 8.893-50.795 32.544-57.736 61.724-2.604 10.945-3.309 21.9-2.097 32.56 0.139 1.225-0.44 2.08-0.797 2.481-0.627 0.703-1.516 1.106-2.439 1.106-0.103 0-0.209-5e-3 -0.314-0.015-62.762-5.831-119.36-36.068-159.36-85.14-2.04-2.503-5.952-2.196-7.578 0.593-7.834 13.44-11.974 28.812-11.974 44.454 0 23.972 9.631 46.563 26.36 63.032-7.035-1.668-13.844-4.295-20.169-7.808-3.06-1.7-6.825 0.485-6.868 3.985-0.438 35.612 20.412 67.3 51.646 81.569-0.629 0.015-1.258 0.022-1.888 0.022-4.951 0-9.964-0.478-14.898-1.421-3.446-0.658-6.341 2.611-5.271 5.952 10.138 31.651 37.39 54.981 70.002 60.278-27.066 18.169-58.585 27.753-91.39 27.753l-10.227-6e-3c-3.151 0-5.816 2.054-6.619 5.106-0.791 3.006 0.666 6.177 3.353 7.74 36.966 21.513 79.131 32.883 121.96 32.883 37.485 0 72.549-7.439 104.22-22.109 29.033-13.449 54.689-32.674 76.255-57.141 20.09-22.792 35.8-49.103 46.692-78.201 10.383-27.737 15.871-57.333 15.871-85.589v-1.346c-1e-3 -4.537 2.051-8.806 5.631-11.712 13.585-11.03 25.415-24.014 35.16-38.591 2.573-3.849-1.485-8.673-5.719-6.795z" fill="#fff"/>















</svg>
