<?xml version="1.0" encoding="UTF-8"?>
<svg id="svg56" width="86px" height="86px" enable-background="new 0 0 86 86" version="1.1" viewBox="0 0 86 86" xml:space="preserve" xmlns="http://www.w3.org/2000/svg" xmlns:cc="http://creativecommons.org/ns#" xmlns:dc="http://purl.org/dc/elements/1.1/" xmlns:rdf="http://www.w3.org/1999/02/22-rdf-syntax-ns#"><metadata id="metadata62"><rdf:RDF><cc:Work rdf:about=""><dc:format>image/svg+xml</dc:format><dc:type rdf:resource="http://purl.org/dc/dcmitype/StillImage"/><dc:title/></cc:Work></rdf:RDF></metadata><defs id="defs60">
	
		<radialGradient id="SVGID_1_" cx="481.85" cy="348.98" r="44.79" gradientTransform="matrix(0 .953 -.9513 0 374.89 -416.21)" gradientUnits="userSpaceOnUse">
		<stop id="stop3" stop-color="#bbdefb" offset="0"/>
		<stop id="stop5" stop-color="#0277bd" offset="1"/>
	</radialGradient>
	
	
	
	
	
	
</defs>

<path id="path8" d="m85.521 84.261v-41.261c0-23.574-19.078-42.683-42.611-42.683h-41.19c-0.784 0-1.42 0.637-1.42 1.423v41.26c0 23.574 19.078 42.684 42.611 42.684h41.19c0.784 0 1.42-0.638 1.42-1.423z" fill="url(#SVGID_1_)"/>
<path id="path8-3" d="m43 9c-18.778 0-34 15.222-34 34 0 18.778 15.222 34 34 34 18.778 0 34-15.222 34-34s-15.222-34-34-34zm-3.4057 6.4983c0.39639-0.04129 0.89972 0.0238 1.2997 0 0.0476 0.18962-0.28783 0.86258-0.73996 1.8499-2.8788 6.289-3.0418 13.661-0.36997 17.598 0.48348 0.71375 0.9202 1.3916 0.9202 1.4799 0 0.08825-0.52037 0.18025-1.1099 0.18025-1.384 0-2.6934-0.8408-5.3694-2.9598-1.1888-0.94134-2.7311-1.7302-3.3298-1.8499-0.94022-0.18783-1.1933-0.10652-2.4096 1.1099-1.1317 1.1315-1.4799 1.7437-1.4799 2.7796 0 3.928 4.6606 7.0421 13.329 8.8795 11.772 2.4949 14.674 4.7386 14.998 10.929 0.40766 7.762-3.7271 13.617-12.778 18.148-1.0803 0.54098-1.7666 0.74539-2.2199 0.9202-0.20084-0.01797-0.34996 0.01797-0.55023 0-0.07703-0.23999-0.18972-0.79497-0.18972-1.8499 0-4.1226-1.6212-8.3658-4.0697-10.739-0.65728-0.63708-2.5033-1.9842-4.0792-2.9598-1.5759-0.97552-3.1652-2.1064-3.5195-2.5898-0.58718-0.80233-0.63138-1.2974-0.18025-2.7796 0.82218-2.707 1.7973-4.2187 3.6998-5.9291 0.99738-0.89672 1.9989-1.6422 2.2199-1.6602 0.221-0.01797-1.2668-0.4708-3.51-0.92969-2.2432-0.45978-5.5322-1.4256-7.2288-2.0396-3.1023-1.1225-7.2826-3.4742-8.8795-5.1797-0.06756-0.07227-0.13105-0.1257-0.18972-0.18972 2.2879-9.1135 8.7067-16.578 17.218-20.178 1.7809-0.75327 3.6211-1.2733 5.5591-1.6696 0.96533-0.1973 1.9631-0.26865 2.9598-0.36997zm27.777 13.888c0.6959 0.43015 3.3197 6.116 4.0697 8.8889 0.96842 3.5799 0.89833 9.7724 0 13.329-0.34189 1.3535-0.77442 2.622-0.92019 2.7796-0.14571 0.15762-0.67789-0.74798-1.2997-1.8499-0.62186-1.1017-2.6088-3.4475-4.2595-5.1892-4.7647-5.0277-5.5154-7.6465-3.5195-11.659 1.0065-2.0234 5.3905-6.6315 5.9291-6.2991z" fill="#fff" opacity=".3" stroke-width="4.8571"/><path id="path2452" class="st0" d="m43 18.999c13.252 0 24 10.746 24 24.003 0 13.252-10.748 24-24 24s-24-10.748-24-24c0-13.257 10.748-24.003 24-24.003m9.6342 33.717v-24.023l-24.156 8.6729v5.9702l8.0017-2.8918v18.058zm-9.6342-30.196c-11.308 0-20.478 9.1678-20.478 20.481 0 11.308 9.1703 20.479 20.478 20.479s20.476-9.1704 20.476-20.479c0-11.313-9.1678-20.481-20.476-20.481" fill="#fff" stroke-width=".025912"/></svg>
