<?xml version="1.0" encoding="UTF-8"?>
<svg id="svg56" width="86px" height="86px" enable-background="new 0 0 86 86" version="1.1" viewBox="0 0 86 86" xml:space="preserve" xmlns="http://www.w3.org/2000/svg" xmlns:cc="http://creativecommons.org/ns#" xmlns:dc="http://purl.org/dc/elements/1.1/" xmlns:rdf="http://www.w3.org/1999/02/22-rdf-syntax-ns#"><metadata id="metadata62"><rdf:RDF><cc:Work rdf:about=""><dc:format>image/svg+xml</dc:format><dc:type rdf:resource="http://purl.org/dc/dcmitype/StillImage"/><dc:title/></cc:Work></rdf:RDF></metadata><defs id="defs60">
	
		<radialGradient id="SVGID_1_" cx="481.85" cy="348.98" r="44.79" gradientTransform="matrix(0 .953 .9513 0 -289.07 -416.21)" gradientUnits="userSpaceOnUse">
		<stop id="stop3" stop-color="#bbdefb" offset="0"/>
		<stop id="stop5" stop-color="#0277bd" offset="1"/>
	</radialGradient>
	
	
	
	
	
	
</defs>

<path id="path8" d="m0.3 84.261v-41.261c0-23.574 19.078-42.683 42.611-42.683h41.19c0.784 0 1.42 0.637 1.42 1.423v41.26c0 23.574-19.078 42.684-42.611 42.684h-41.19c-0.784 0-1.42-0.638-1.42-1.423z" fill="url(#SVGID_1_)"/>
<path id="path8-3" d="m43 9c-18.778 0-34 15.222-34 34 0 18.778 15.222 34 34 34 18.778 0 34-15.222 34-34s-15.222-34-34-34zm-3.4057 6.4983c0.39639-0.04129 0.89972 0.0238 1.2997 0 0.0476 0.18962-0.28783 0.86258-0.73996 1.8499-2.8788 6.289-3.0418 13.661-0.36997 17.598 0.48348 0.71375 0.9202 1.3916 0.9202 1.4799 0 0.08825-0.52037 0.18025-1.1099 0.18025-1.384 0-2.6934-0.8408-5.3694-2.9598-1.1888-0.94134-2.7311-1.7302-3.3298-1.8499-0.94022-0.18783-1.1933-0.10652-2.4096 1.1099-1.1317 1.1315-1.4799 1.7437-1.4799 2.7796 0 3.928 4.6606 7.0421 13.329 8.8795 11.772 2.4949 14.674 4.7386 14.998 10.929 0.40766 7.762-3.7271 13.617-12.778 18.148-1.0803 0.54098-1.7666 0.74539-2.2199 0.9202-0.20084-0.01797-0.34996 0.01797-0.55023 0-0.07703-0.23999-0.18972-0.79497-0.18972-1.8499 0-4.1226-1.6212-8.3658-4.0697-10.739-0.65728-0.63708-2.5033-1.9842-4.0792-2.9598-1.5759-0.97552-3.1652-2.1064-3.5195-2.5898-0.58718-0.80233-0.63138-1.2974-0.18025-2.7796 0.82218-2.707 1.7973-4.2187 3.6998-5.9291 0.99738-0.89672 1.9989-1.6422 2.2199-1.6602 0.221-0.01797-1.2668-0.4708-3.51-0.92969-2.2432-0.45978-5.5322-1.4256-7.2288-2.0396-3.1023-1.1225-7.2826-3.4742-8.8795-5.1797-0.06756-0.07227-0.13105-0.1257-0.18972-0.18972 2.2879-9.1135 8.7067-16.578 17.218-20.178 1.7809-0.75327 3.6211-1.2733 5.5591-1.6696 0.96533-0.1973 1.9631-0.26865 2.9598-0.36997zm27.777 13.888c0.6959 0.43015 3.3197 6.116 4.0697 8.8889 0.96842 3.5799 0.89833 9.7724 0 13.329-0.34189 1.3535-0.77442 2.622-0.92019 2.7796-0.14571 0.15762-0.67789-0.74798-1.2997-1.8499-0.62186-1.1017-2.6088-3.4475-4.2595-5.1892-4.7647-5.0277-5.5154-7.6465-3.5195-11.659 1.0065-2.0234 5.3905-6.6315 5.9291-6.2991z" fill="#fff" opacity=".3" stroke-width="4.8571"/><text id="text843" font-family="Autobahn" font-size="8px" letter-spacing="0px" word-spacing="0px" style="line-height:1.25;shape-inside:url(#rect845);white-space:pre" xml:space="preserve"/><g id="text853" transform="matrix(7.3718 0 0 7.3718 -82.91 119.1)" fill="#fff" stroke-width=".13565" style="shape-inside:url(#rect855);white-space:pre" aria-label="i"><path id="path847" d="m17.372-12.291q-0.264 0-0.448-0.12-0.176-0.128-0.176-0.376 0-0.352 0.224-0.504t0.52-0.152q0.256 0 0.448 0.12 0.192 0.112 0.192 0.384 0 0.328-0.24 0.488-0.232 0.16-0.52 0.16zm-0.392 5.088q-0.456 0-0.704-0.216-0.248-0.224-0.248-0.608 0-0.168 0.032-0.408t0.096-0.544l0.312-1.488q0.024-0.104 0.04-0.208t0.016-0.136q0-0.216-0.096-0.272-0.096-0.064-0.328-0.064h-0.144l0.08-0.424h1.888l-0.552 2.6q-0.048 0.216-0.08 0.408t-0.032 0.36q0 0.36 0.28 0.36 0.128 0 0.232-0.048t0.24-0.136l0.192 0.272q-0.192 0.2-0.488 0.376t-0.736 0.176z" fill="#fff" stroke-width=".13565"/></g></svg>
